# xmcd
#
# Track frame offsets:
#	150
#	19471
#	34479
#	49606
#	67694
#	85538
#	103678
#	120546
#	138808
#	157499
#	171732
#	187938
#	205825
#	220569
#
# Disc length: 3134 seconds
#
# Revision: 1
# Processed by: cddbd v1.5.1PL2 Copyright (c) Steve Scherf et al.
# Submitted via: audiograbber 1.83.01
#
DISCID=c10c3c0e
DTITLE=Star Disc - SD128
DYEAR=1900
DGENRE=Karaoke
TTITLE0=Chesney, Kenny - Anything But Mine
TTITLE1=Messina, Jo Dee - My Give A Damn's Busted
TTITLE2=Shelton, Blake - Goodbye Time
TTITLE3=Lonestar - Class Reunion (That Used To Be Us)
TTITLE4=Lines, Aaron - Waitin' On The Wonderful
TTITLE5=Howard, Rebecca Lynn - That's Why I Hate Pontiacs
TTITLE6=Merritt, Tift - Good Hearted Man
TTITLE7=Cross Canadian Ragweed - Alabama
TTITLE8=Thomas, Keni - Not Me
TTITLE9=Brown, Sawyer - Mission Temple Fireworks Stand
TTITLE10=Jones, Zona - Two Hearts (One Love)
TTITLE11=Rogers, Randy - Tonight's Not The Night
TTITLE12=Atkins, Rodney - Monkey In The Middle
TTITLE13=Buffett, Jimmy and Toby Keith - Piece Of Work
EXTD=
EXTT0=
EXTT1=
EXTT2=
EXTT3=
EXTT4=
EXTT5=
EXTT6=
EXTT7=
EXTT8=
EXTT9=
EXTT10=
EXTT11=
EXTT12=
EXTT13=
PLAYORDER=
